<?xml version="1.0" encoding="UTF-8"?>
<svg id="Capa_1" xmlns="http://www.w3.org/2000/svg" version="1.1" viewBox="0 0 75.1 77.6">
  <!-- Generator: Adobe Illustrator 30.1.0, SVG Export Plug-In . SVG Version: 2.1.1 Build 136)  -->
  <defs>
    <style>
      .st0 {
        fill: #051d40;
      }

      .st1 {
        fill: #ffbd4a;
      }
    </style>
  </defs>
  <rect class="st1" x="3.8" y="2.8" width="67.4" height="72" rx="10.5" ry="10.5"/>
  <g>
    <path class="st0" d="M59.2,44.3c.8,1.5.2,3.3-1.2,4.1l-15.9,8.9h-16.3s-2.3-1.2-2.3-1.2v.9c0,.5-.3.9-.9.9h-6.3c-.4,0-.7-.3-.7-.7v-14.5c0-.4.3-.8.7-.8h6.3c.5,0,.8.3.8.8v1c0,0,2.3-1.2,2.3-1.2h5.8s10.5,4.1,10.5,4.1c1,.4,1.6,1.4,1.9,2.5l10.8-6c1.6-.9,3.6-.3,4.5,1.3ZM22,43.2h-5.1v13.3h5.1v-13.3ZM43.5,50.8c-.7,1.4-2.4,2.1-3.8,1.6l-10.4-4c-.4-.1-.5-.6-.4-1s.6-.5.9-.3l10.3,4c.9.4,2-.3,2.2-1.1.4-1-.1-1.9-1.1-2.3l-10-3.9c-1.7,0-3.5,0-5.2,0l-2.6,1.4v9.2s2.6,1.5,2.6,1.5h15.7s15.7-8.7,15.7-8.7c.5-.3.7-.9.9-1.4-.1-.7-.4-1.3-.9-1.6s-1.3-.4-1.9-.1l-12,6.7Z"/>
    <path class="st0" d="M43.4,42c-.3.3-.8.3-1.1,0l-2.7-3.5h-6.9c-1.4,0-2.5-1.1-2.5-2.6v-13.4c0-1.2,1.3-2.2,2.5-2.2h20.2c1.6,0,2.6,1.3,2.6,2.8v12.8c0,1.6-1.2,2.6-2.7,2.6h-6.7s-2.7,3.4-2.7,3.4ZM45.1,37.6c.2-.3.6-.4.9-.4h7.1c.6,0,1-.6,1-1.2v-13.1c0-.7-.6-1.1-1.2-1.1h-20.2c-.8,0-1.2.6-1.2,1.3v12.9c0,.7.5,1.2,1.2,1.2h7c.4,0,.7.2.9.5l2.2,2.8,2.2-2.9Z"/>
    <path class="st0" d="M49.5,29.4c0,3.7-3,6.6-6.6,6.6s-6.6-3-6.6-6.6,3-6.6,6.6-6.6,6.6,3,6.6,6.6ZM48.1,29.4c0-2.9-2.3-5.2-5.2-5.2s-5.2,2.3-5.2,5.2,2.3,5.2,5.2,5.2,5.2-2.3,5.2-5.2Z"/>
    <path class="st0" d="M41.9,31.7l-1.9-2c-.2-.2-.2-.7,0-.9s.8-.3,1,0l1.3,1.4,2.4-2.6c.2-.2.7-.2.9,0s.3.7,0,1l-2.8,3c-.2.2-.8.4-1,.1Z"/>
  </g>
</svg>
