<?xml version="1.0" encoding="UTF-8"?>
<svg id="Capa_1" xmlns="http://www.w3.org/2000/svg" version="1.1" viewBox="0 0 75.1 77.6">
  <!-- Generator: Adobe Illustrator 30.1.0, SVG Export Plug-In . SVG Version: 2.1.1 Build 136)  -->
  <defs>
    <style>
      .st0 {
        fill: #051d40;
      }

      .st1 {
        fill: #ffbd4a;
      }
    </style>
  </defs>
  <rect class="st1" x="3.8" y="2.8" width="67.4" height="72" rx="10.5" ry="10.5"/>
  <g>
    <path class="st0" d="M63.7,41.1v14.8H11.4v-14.8h52.3ZM62.4,42.3H12.7v12.2h49.7v-12.2Z"/>
    <path class="st0" d="M41.2,34.2h-7.1c-1.1,0-1.9.9-2,2v2.6s-1.3,0-1.3,0c0-1.2,0-2,0-3.1.2-1.6,1.5-2.8,3.1-2.8h7.1c1.6,0,3,1.3,3.2,2.9s0,1.8.1,2.9h-1.2s0-2.6,0-2.6c0-1-.8-1.9-1.9-1.9Z"/>
    <path class="st0" d="M41.5,28.1c0,2.2-1.8,3.9-3.9,3.9s-3.9-1.8-3.9-3.9,1.8-3.9,3.9-3.9,3.9,1.8,3.9,3.9ZM40.2,28.1c0-1.5-1.2-2.6-2.6-2.6s-2.6,1.2-2.6,2.6,1.2,2.6,2.6,2.6,2.6-1.2,2.6-2.6Z"/>
    <path class="st0" d="M26.5,28.1c0,2.2-1.8,3.9-3.9,3.9s-3.9-1.8-3.9-3.9,1.8-3.9,3.9-3.9,3.9,1.8,3.9,3.9ZM25.2,28.1c0-1.5-1.2-2.6-2.6-2.6s-2.6,1.2-2.6,2.6,1.2,2.6,2.6,2.6,2.6-1.2,2.6-2.6Z"/>
    <path class="st0" d="M56.4,28.1c0,2.2-1.8,3.9-3.9,3.9s-3.9-1.8-3.9-3.9,1.8-3.9,3.9-3.9,3.9,1.8,3.9,3.9ZM55.1,28.1c0-1.5-1.2-2.6-2.6-2.6s-2.6,1.2-2.6,2.6,1.2,2.6,2.6,2.6,2.6-1.2,2.6-2.6Z"/>
    <path class="st0" d="M26.3,34.2h-7.1c-1.1,0-2,.9-2,1.9v2.7c0,0-1.3,0-1.3,0,0-1.1,0-1.9,0-3,.2-1.7,1.5-2.9,3.2-2.9h7.1c1.6,0,3,1.4,3.1,3l.2,2.9h-1.2s-.1-2.7-.1-2.7c0-.9-.8-1.8-1.8-1.8Z"/>
    <path class="st0" d="M56.3,34.2h-7.1c-1.1,0-2,.8-2,1.9v2.7s-1.3,0-1.3,0c0-1.2,0-2.1,0-3.2.2-1.6,1.6-2.7,3.2-2.7h7.1c1.6,0,3,1.4,3.1,3l.2,2.8c-.2,0-.9.1-1.2.1v-2.7c-.1-.9-.9-1.8-1.9-1.8Z"/>
  </g>
</svg>