<?xml version="1.0" encoding="UTF-8"?>
<svg id="Capa_1" xmlns="http://www.w3.org/2000/svg" version="1.1" viewBox="0 0 75.1 77.6">
  <!-- Generator: Adobe Illustrator 30.1.0, SVG Export Plug-In . SVG Version: 2.1.1 Build 136)  -->
  <defs>
    <style>
      .st0 {
        fill: #051d40;
      }

      .st1 {
        fill: #ffbd4a;
      }
    </style>
  </defs>
  <rect class="st1" x="3.8" y="2.8" width="67.4" height="72" rx="10.5" ry="10.5"/>
  <g>
    <path class="st0" d="M45.7,35.4c.2-.2.7-.1.9,0s.3.7.1.9l-2.4,2.5h4c1.5,0,3-.3,4.4-.8,2.8-1.1,4.2-3.7,3.8-6.6-.3-2.4-1.6-4.3-3.9-5.2s-3.1-.9-4.7-.8h-14.8c0,0,0,2.6,0,2.6,0,.4-.3.8-.7.8h-11.6c-.4,0-.8-.3-.8-.8v-6.8c0-.4.4-.7.8-.7h11.6c.5,0,.7.4.7.8v2.8s14.9,0,14.9,0c1.8,0,3.5.3,5.1.9,2.9,1,4.5,3.5,4.8,6.4.3,3.3-1.2,6.2-4.2,7.6s-3.3,1.1-5,1.1h-4.1c0,0,2,2.1,2,2.1.2.2.2.6.2.8s-.7.5-1,.3l-3.4-3.4c-.2-.2-.3-.7,0-1l3.5-3.5ZM31.7,21.8h-10.4v5.5h10.4v-5.5Z"/>
    <path class="st0" d="M35.1,53.8l-2.3-2.4c-.2-.2-.2-.7,0-.9s.7-.3.9-.1l3.3,3.3c.3.3.3.8,0,1.1l-3.4,3.4c-.2.2-.7.1-.8,0s-.3-.7-.1-.9l2.1-2.2h-8.3c-1.9-.1-3.7-.6-5.2-1.5-2.8-1.6-4.2-4.5-3.9-7.7.4-5.6,5-7.7,10.2-7.7v-2.8c0-.2.3-.6.7-.6h11.8c.4,0,.7.4.7.7v6.9c0,.4-.3.8-.7.8h-11.6c-.5,0-.8-.3-.8-.8v-2.9c-3.1.1-6.5.8-8,3.6s-1,3.1-.8,4.7c.6,4.2,4.6,6,8.5,6h8Z"/>
    <path class="st0" d="M51.3,58.3h-11.8c-.3,0-.7-.3-.7-.7v-7c0-.4.3-.7.7-.7h11.8c.4,0,.7.4.7.7v7c0,.3-.3.6-.6.7ZM50.5,51.2h-10.4v5.8h10.4v-5.8Z"/>
  </g>
</svg>
